<svg width="120" height="31" viewBox="0 0 120 31" fill="none" xmlns="http://www.w3.org/2000/svg">
<path d="M105.652 29.5553C103.204 29.5553 100.996 29.0393 99.0281 28.0073C97.0601 26.9753 95.5001 25.4633 94.3481 23.4713C93.2201 21.4553 92.6561 19.0553 92.6561 16.2713C92.6561 13.5833 93.2321 11.2433 94.3841 9.25132C95.5361 7.23532 97.0961 5.69932 99.0641 4.64332C101.032 3.56332 103.228 3.02332 105.652 3.02332C108.052 3.02332 110.236 3.56332 112.204 4.64332C114.172 5.69932 115.732 7.23532 116.884 9.25132C118.036 11.2433 118.612 13.5833 118.612 16.2713C118.612 19.0553 118.036 21.4553 116.884 23.4713C115.756 25.4633 114.208 26.9753 112.24 28.0073C110.272 29.0393 108.076 29.5553 105.652 29.5553ZM98.0201 16.2713C98.0201 18.7433 98.3561 20.8433 99.0281 22.5713C99.7001 24.2753 100.612 25.5593 101.764 26.4233C102.916 27.2873 104.212 27.7193 105.652 27.7193C107.068 27.7193 108.352 27.2873 109.504 26.4233C110.656 25.5593 111.568 24.2633 112.24 22.5353C112.912 20.8073 113.248 18.7193 113.248 16.2713C113.248 13.9193 112.912 11.8793 112.24 10.1513C111.568 8.42332 110.656 7.11532 109.504 6.22732C108.352 5.31532 107.068 4.85932 105.652 4.85932C104.236 4.85932 102.94 5.31532 101.764 6.22732C100.612 7.11532 99.7001 8.42332 99.0281 10.1513C98.3561 11.8793 98.0201 13.9193 98.0201 16.2713Z" fill="#FCFCA8"/>
<path d="M55.7842 29.2673C56.2882 28.7393 56.6962 28.0793 57.0082 27.2873C57.3202 26.4953 57.4762 25.4033 57.4762 24.0113V8.56728C57.4762 7.17528 57.3202 6.08328 57.0082 5.29128C56.6962 4.49928 56.2882 3.83928 55.7842 3.31128H59.8522L59.9242 3.41928V3.31128L71.4802 20.6993L83.0002 3.31128H87.0682C86.5642 3.81528 86.1442 4.47528 85.8082 5.29128C85.4962 6.08328 85.3402 7.17528 85.3402 8.56728V24.0113C85.3402 25.4033 85.4962 26.4953 85.8082 27.2873C86.1442 28.1033 86.5642 28.7633 87.0682 29.2673H80.3002V10.7633L71.4802 24.0833L62.5522 10.6553L62.5162 29.2673H55.7842Z" fill="#FCFCA8"/>
<path d="M40.4688 29.2673C40.9728 28.7393 41.3808 28.0793 41.6928 27.2873C42.0288 26.4953 42.1968 25.4033 42.1968 24.0113V8.56728C42.1968 7.17528 42.0288 6.08328 41.6928 5.29128C41.3808 4.49928 40.9728 3.83928 40.4688 3.31128H48.9288C48.4248 3.83928 48.0048 4.49928 47.6688 5.29128C47.3568 6.08328 47.2008 7.17528 47.2008 8.56728V24.0113C47.2008 25.4033 47.3568 26.4953 47.6688 27.2873C48.0048 28.0793 48.4248 28.7393 48.9288 29.2673H40.4688Z" fill="#FCFCA8"/>
<path d="M2.33691 29.2673C2.84091 28.7393 3.24891 28.0793 3.56091 27.2873C3.87291 26.4953 4.02891 25.4033 4.02891 24.0113V8.56728C4.02891 7.17528 3.87291 6.08328 3.56091 5.29128C3.24891 4.49928 2.84091 3.83928 2.33691 3.31128H6.40491L6.47691 3.41928V3.31128L18.0329 20.6993L29.5529 3.31128H33.6209C33.1169 3.81528 32.6969 4.47528 32.3609 5.29128C32.0489 6.08328 31.8929 7.17528 31.8929 8.56728V24.0113C31.8929 25.4033 32.0489 26.4953 32.3609 27.2873C32.6969 28.1033 33.1169 28.7633 33.6209 29.2673H26.8529V10.7633L18.0329 24.0833L9.10491 10.6553L9.06891 29.2673H2.33691Z" fill="#FCFCA8"/>
<path fill-rule="evenodd" clip-rule="evenodd" d="M93.479 23.9658L93.4755 23.9596C92.2485 21.7666 91.6562 19.1913 91.6562 16.2713C91.6562 13.4383 92.2643 10.9205 93.5173 8.75291C94.7576 6.58329 96.4499 4.91222 98.5873 3.76436C100.713 2.59859 103.076 2.02332 105.652 2.02332C108.207 2.02332 110.557 2.59941 112.681 3.76436C114.819 4.91222 116.511 6.58329 117.751 8.75291C119.004 10.9205 119.612 13.4383 119.612 16.2713C119.612 19.1937 119.007 21.7712 117.754 23.9653C117.753 23.966 117.753 23.9667 117.752 23.9675L116.884 23.4714L117.754 23.9641C117.754 23.9645 117.754 23.9649 117.754 23.9653C116.534 26.1186 114.848 27.7691 112.705 28.8929C110.581 30.0067 108.223 30.5553 105.652 30.5553C103.059 30.5553 100.689 30.0075 98.5638 28.8929C96.4222 27.7699 94.7257 26.1215 93.4825 23.9719L93.479 23.9658ZM116.884 9.25132C115.732 7.23532 114.172 5.69932 112.204 4.64332C110.236 3.56332 108.052 3.02332 105.652 3.02332C103.228 3.02332 101.032 3.56332 99.0642 4.64332C97.0962 5.69932 95.5362 7.23532 94.3842 9.25132C93.2322 11.2433 92.6562 13.5833 92.6562 16.2713C92.6562 19.0553 93.2202 21.4553 94.3482 23.4713C95.5002 25.4633 97.0602 26.9753 99.0282 28.0073C100.996 29.0393 103.204 29.5553 105.652 29.5553C108.076 29.5553 110.272 29.0393 112.24 28.0073C114.208 26.9753 115.756 25.4634 116.884 23.4714C118.036 21.4554 118.612 19.0553 118.612 16.2713C118.612 13.5833 118.036 11.2433 116.884 9.25132ZM108.883 7.01136C107.901 6.23354 106.834 5.85932 105.652 5.85932C104.47 5.85932 103.387 6.23408 102.377 7.01754L102.375 7.01933C101.402 7.76941 100.584 8.90959 99.9602 10.5138C99.3434 12.0998 99.0202 14.0114 99.0202 16.2713C99.0202 18.6572 99.3451 20.6261 99.9594 22.2067C100.582 23.7836 101.396 24.8972 102.364 25.6233C103.343 26.3575 104.429 26.7193 105.652 26.7193C106.848 26.7193 107.922 26.3599 108.904 25.6233C109.87 24.8993 110.685 23.7762 111.308 22.1729C111.923 20.5909 112.248 18.6329 112.248 16.2713C112.248 14.0114 111.925 12.0998 111.308 10.5138C110.684 8.90959 109.867 7.76941 108.894 7.01933L108.883 7.01136ZM99.0282 22.5713C98.3562 20.8433 98.0202 18.7433 98.0202 16.2713C98.0202 13.9193 98.3562 11.8793 99.0282 10.1513C99.7002 8.42332 100.612 7.11532 101.764 6.22732C102.94 5.31532 104.236 4.85932 105.652 4.85932C107.068 4.85932 108.352 5.31532 109.504 6.22732C110.656 7.11532 111.568 8.42332 112.24 10.1513C112.912 11.8793 113.248 13.9193 113.248 16.2713C113.248 18.7193 112.912 20.8073 112.24 22.5353C111.568 24.2633 110.656 25.5593 109.504 26.4233C108.352 27.2873 107.068 27.7193 105.652 27.7193C104.212 27.7193 102.916 27.2873 101.764 26.4233C100.612 25.5593 99.7002 24.2753 99.0282 22.5713Z" fill="#FCFCA8"/>
<path fill-rule="evenodd" clip-rule="evenodd" d="M53.4473 30.2673L55.061 28.5769C55.4621 28.1566 55.8056 27.6122 56.0779 26.9208C56.3239 26.2963 56.4763 25.3474 56.4763 24.0113V8.56734C56.4763 7.23127 56.3239 6.28236 56.0779 5.65786C55.8056 4.9665 55.4621 4.42204 55.061 4.00181L53.4473 2.31134H58.9243V0L71.479 18.8907L82.4633 2.31134H89.4826L87.7754 4.01845C87.3855 4.40841 87.0327 4.94638 86.736 5.66483C86.4916 6.2894 86.3403 7.23623 86.3403 8.56734V24.0113C86.3403 25.3424 86.4916 26.2893 86.736 26.9138C87.0327 27.6323 87.3855 28.1703 87.7754 28.5602L89.4826 30.2673H79.3003V14.0848L71.482 25.892L63.546 13.9559L63.5144 30.2673H53.4473ZM62.5523 10.6553L71.4803 24.0833L80.3003 10.7633V29.2673H87.0683C86.7845 28.9835 86.5273 28.6502 86.2967 28.2673C86.1179 27.9704 85.9551 27.6438 85.8083 27.2873C85.4963 26.4953 85.3403 25.4033 85.3403 24.0113V8.56734C85.3403 7.17534 85.4963 6.08334 85.8083 5.29134C85.9551 4.93491 86.1179 4.60824 86.2967 4.31134C86.5273 3.92852 86.7845 3.59519 87.0683 3.31134H83.0003L71.4803 20.6993L59.9243 3.31134V3.41934L59.8523 3.31134H55.7843C56.0638 3.60409 56.3137 3.93742 56.5341 4.31134C56.7113 4.6118 56.8693 4.93847 57.0083 5.29134C57.3203 6.08334 57.4763 7.17534 57.4763 8.56734V24.0113C57.4763 25.4033 57.3203 26.4953 57.0083 27.2873C56.8693 27.6402 56.7113 27.9669 56.5341 28.2673C56.3137 28.6413 56.0638 28.9746 55.7843 29.2673H62.5163L62.5523 10.6553Z" fill="#FCFCA8"/>
<path fill-rule="evenodd" clip-rule="evenodd" d="M38.1319 30.2673L39.7455 28.5769C40.1466 28.1566 40.4901 27.6122 40.7625 26.9208L40.7672 26.9087L40.7723 26.8968C41.0334 26.2813 41.1969 25.3421 41.1969 24.0113V8.56734C41.1969 7.2366 41.0334 6.29738 40.7723 5.68189L40.7672 5.66994L40.7625 5.65786C40.4901 4.9665 40.1466 4.42204 39.7455 4.00182L38.1319 2.31134H51.2659L49.6522 4.00182C49.2473 4.42597 48.8908 4.97499 48.5947 5.66951C48.3514 6.29413 48.2009 7.23955 48.2009 8.56734V24.0113C48.2009 25.3391 48.3514 26.2845 48.5947 26.9092C48.8908 27.6037 49.2473 28.1527 49.6522 28.5769L51.2659 30.2673H38.1319ZM47.6689 27.2873C47.3569 26.4953 47.2009 25.4033 47.2009 24.0113V8.56734C47.2009 7.17534 47.3569 6.08334 47.6689 5.29134C47.8186 4.93847 47.9849 4.6118 48.168 4.31134C48.3958 3.93743 48.6494 3.60409 48.9289 3.31134H40.4689C40.7483 3.60409 40.9982 3.93743 41.2187 4.31134C41.3958 4.6118 41.5539 4.93847 41.6929 5.29134C42.0289 6.08334 42.1969 7.17534 42.1969 8.56734V24.0113C42.1969 25.4033 42.0289 26.4953 41.6929 27.2873C41.5539 27.6402 41.3958 27.9669 41.2187 28.2673C40.9982 28.6413 40.7483 28.9746 40.4689 29.2673H48.9289C48.6494 28.9746 48.3958 28.6413 48.168 28.2673C47.9849 27.9669 47.8186 27.6402 47.6689 27.2873Z" fill="#FCFCA8"/>
<path fill-rule="evenodd" clip-rule="evenodd" d="M3.27826e-06 30.2673L1.61364 28.5769C2.01476 28.1566 2.35823 27.6122 2.63059 26.9208C2.8766 26.2963 3.029 25.3474 3.029 24.0113V8.56734C3.029 7.23127 2.8766 6.28236 2.63059 5.65786C2.35823 4.9665 2.01476 4.42204 1.61364 4.00181L0 2.31134H5.47699V0L18.0317 18.8907L29.016 2.31134H36.0352L34.3281 4.01845C33.9381 4.40841 33.5854 4.94638 33.2887 5.66482C33.0443 6.2894 32.893 7.23622 32.893 8.56734V24.0113C32.893 25.3424 33.0443 26.2893 33.2887 26.9138C33.5854 27.6323 33.9381 28.1703 34.3281 28.5602L36.0352 30.2673H25.853V14.0848L18.0347 25.892L10.0986 13.9559L10.0671 30.2673H3.27826e-06ZM9.10499 10.6553L18.033 24.0833L26.853 10.7633V29.2673H33.621C33.3371 28.9835 33.0799 28.6502 32.8494 28.2673C32.6706 27.9704 32.5078 27.6438 32.361 27.2873C32.049 26.4953 31.893 25.4033 31.893 24.0113V8.56734C31.893 7.17534 32.049 6.08334 32.361 5.29134C32.5078 4.93491 32.6706 4.60824 32.8494 4.31134C33.0799 3.92852 33.3371 3.59519 33.621 3.31134H29.553L18.033 20.6993L6.47699 3.31134V3.41934L6.40499 3.31134H2.33699C2.61644 3.60409 2.86638 3.93742 3.0868 4.31134C3.26392 4.6118 3.42199 4.93847 3.56099 5.29134C3.87299 6.08334 4.029 7.17534 4.029 8.56734V24.0113C4.029 25.4033 3.87299 26.4953 3.56099 27.2873C3.42199 27.6402 3.26392 27.9669 3.0868 28.2673C2.86638 28.6413 2.61644 28.9746 2.33699 29.2673H9.069L9.10499 10.6553Z" fill="#FCFCA8"/>
</svg>
