<svg width="24" height="26" viewBox="0 0 24 26" fill="none" xmlns="http://www.w3.org/2000/svg">
<path d="M7.43999 23.3025C7.98392 23.9903 8.67705 24.5455 9.467 24.9262C10.257 25.3069 11.1231 25.5031 12 25.5C12.8769 25.5031 13.743 25.3069 14.533 24.9262C15.3229 24.5455 16.016 23.9903 16.56 23.3025C13.5338 23.7127 10.4661 23.7127 7.43999 23.3025ZM20.4375 9.25V10.13C20.4375 11.1863 20.7375 12.2188 21.3025 13.0975L22.6875 15.2512C23.9512 17.2188 22.9862 19.8925 20.7875 20.5138C15.0422 22.1412 8.95779 22.1412 3.21249 20.5138C1.01374 19.8925 0.0487362 17.2188 1.31249 15.2512L2.69749 13.0975C3.26445 12.2117 3.56512 11.1817 3.56374 10.13V9.25C3.56374 4.4175 7.34124 0.5 12 0.5C16.6587 0.5 20.4375 4.4175 20.4375 9.25Z" fill="#494949" fill-opacity="0.5"/>
</svg>
