<svg width="24" height="20" viewBox="0 0 24 20" fill="none" xmlns="http://www.w3.org/2000/svg">
<path fill-rule="evenodd" clip-rule="evenodd" d="M0.267473 1.7825C0.409397 1.43985 0.649754 1.14698 0.958141 0.940945C1.26653 0.734908 1.62909 0.624958 1.99997 0.625H14.5C16.9864 0.625 19.3709 1.61272 21.1291 3.37087C22.8873 5.12903 23.875 7.5136 23.875 10C23.875 12.4864 22.8873 14.871 21.1291 16.6291C19.3709 18.3873 16.9864 19.375 14.5 19.375H3.24997C2.75269 19.375 2.27578 19.1775 1.92415 18.8258C1.57252 18.4742 1.37497 17.9973 1.37497 17.5C1.37497 17.0027 1.57252 16.5258 1.92415 16.1742C2.27578 15.8225 2.75269 15.625 3.24997 15.625H14.5C15.9918 15.625 17.4226 15.0324 18.4774 13.9775C19.5323 12.9226 20.125 11.4918 20.125 10C20.125 8.50816 19.5323 7.07742 18.4774 6.02252C17.4226 4.96763 15.9918 4.375 14.5 4.375H6.52622L7.70122 5.55C8.04261 5.90379 8.23138 6.37751 8.22687 6.86913C8.22237 7.36075 8.02496 7.83093 7.67715 8.17841C7.32935 8.52588 6.85898 8.72285 6.36735 8.72689C5.87573 8.73093 5.40219 8.54172 5.04872 8.2L0.673723 3.825C0.411704 3.56283 0.23327 3.22887 0.160962 2.86534C0.0886552 2.5018 0.12572 2.12498 0.267473 1.7825Z" fill="#191919"/>
</svg>
