<svg width="24" height="26" viewBox="0 0 24 26" fill="none" xmlns="http://www.w3.org/2000/svg">
<path d="M7.44002 23.3025C7.98395 23.9903 8.67708 24.5455 9.46703 24.9262C10.257 25.3069 11.1231 25.5031 12 25.5C12.8769 25.5031 13.743 25.3069 14.533 24.9262C15.323 24.5455 16.0161 23.9903 16.56 23.3025C13.5339 23.7127 10.4662 23.7127 7.44002 23.3025ZM20.4375 9.25V10.13C20.4375 11.1863 20.7375 12.2188 21.3025 13.0975L22.6875 15.2512C23.9513 17.2187 22.9863 19.8925 20.7875 20.5137C15.0422 22.1412 8.95782 22.1412 3.21252 20.5137C1.01377 19.8925 0.0487667 17.2187 1.31252 15.2512L2.69752 13.0975C3.26448 12.2117 3.56515 11.1817 3.56377 10.13V9.25C3.56377 4.4175 7.34127 0.5 12 0.5C16.6588 0.5 20.4375 4.4175 20.4375 9.25Z" fill="#191919"/>
</svg>
