<svg width="28" height="20" viewBox="0 0 28 20" fill="none" xmlns="http://www.w3.org/2000/svg">
<path d="M0.25 20V16.5C0.25 15.7916 0.4325 15.1408 0.7975 14.5475C1.1625 13.9541 1.64667 13.5008 2.25 13.1875C3.54167 12.5416 4.85417 12.0575 6.1875 11.735C7.52083 11.4125 8.875 11.2508 10.25 11.25C11.625 11.2491 12.9792 11.4108 14.3125 11.735C15.6458 12.0591 16.9583 12.5433 18.25 13.1875C18.8542 13.5 19.3387 13.9533 19.7038 14.5475C20.0688 15.1416 20.2508 15.7925 20.25 16.5V20H0.25ZM22.75 20V16.25C22.75 15.3333 22.495 14.4529 21.985 13.6087C21.475 12.7646 20.7508 12.0408 19.8125 11.4375C20.875 11.5625 21.875 11.7762 22.8125 12.0787C23.75 12.3812 24.625 12.7508 25.4375 13.1875C26.1875 13.6041 26.7604 14.0675 27.1562 14.5775C27.5521 15.0875 27.75 15.645 27.75 16.25V20H22.75ZM10.25 9.99997C8.875 9.99997 7.69792 9.51039 6.71875 8.53122C5.73958 7.55205 5.25 6.37497 5.25 4.99997C5.25 3.62497 5.73958 2.44789 6.71875 1.46872C7.69792 0.489555 8.875 -2.89843e-05 10.25 -2.89843e-05C11.625 -2.89843e-05 12.8021 0.489555 13.7812 1.46872C14.7604 2.44789 15.25 3.62497 15.25 4.99997C15.25 6.37497 14.7604 7.55205 13.7812 8.53122C12.8021 9.51039 11.625 9.99997 10.25 9.99997ZM22.75 4.99997C22.75 6.37497 22.2604 7.55205 21.2812 8.53122C20.3021 9.51039 19.125 9.99997 17.75 9.99997C17.5208 9.99997 17.2292 9.97414 16.875 9.92247C16.5208 9.8708 16.2292 9.8133 16 9.74997C16.5625 9.0833 16.995 8.34372 17.2975 7.53122C17.6 6.71872 17.7508 5.87497 17.75 4.99997C17.7492 4.12497 17.5983 3.28122 17.2975 2.46872C16.9967 1.65622 16.5642 0.916637 16 0.249971C16.2917 0.145804 16.5833 0.0778879 16.875 0.0462212C17.1667 0.0145546 17.4583 -0.000862318 17.75 -2.89843e-05C19.125 -2.89843e-05 20.3021 0.489555 21.2812 1.46872C22.2604 2.44789 22.75 3.62497 22.75 4.99997Z" fill="#494949" fill-opacity="0.5"/>
</svg>
