<svg width="24" height="20" viewBox="0 0 24 20" fill="none" xmlns="http://www.w3.org/2000/svg">
<path fill-rule="evenodd" clip-rule="evenodd" d="M0.267504 1.7825C0.409428 1.43985 0.649784 1.14698 0.958171 0.940945C1.26656 0.734908 1.62912 0.624958 2 0.625H14.5C16.9864 0.625 19.371 1.61272 21.1291 3.37087C22.8873 5.12903 23.875 7.5136 23.875 10C23.875 12.4864 22.8873 14.871 21.1291 16.6291C19.371 18.3873 16.9864 19.375 14.5 19.375H3.25C2.75272 19.375 2.27581 19.1775 1.92418 18.8258C1.57255 18.4742 1.375 17.9973 1.375 17.5C1.375 17.0027 1.57255 16.5258 1.92418 16.1742C2.27581 15.8225 2.75272 15.625 3.25 15.625H14.5C15.9918 15.625 17.4226 15.0324 18.4775 13.9775C19.5324 12.9226 20.125 11.4918 20.125 10C20.125 8.50816 19.5324 7.07742 18.4775 6.02252C17.4226 4.96763 15.9918 4.375 14.5 4.375H6.52625L7.70125 5.55C8.04264 5.90379 8.23141 6.37751 8.2269 6.86913C8.2224 7.36075 8.02499 7.83093 7.67718 8.17841C7.32938 8.52588 6.85901 8.72285 6.36738 8.72689C5.87576 8.73093 5.40222 8.54172 5.04875 8.2L0.673754 3.825C0.411735 3.56283 0.2333 3.22887 0.160993 2.86534C0.0886857 2.5018 0.12575 2.12498 0.267504 1.7825Z" fill="#494949" fill-opacity="0.5"/>
</svg>
