<svg width="16" height="19" viewBox="0 0 16 19" fill="none" xmlns="http://www.w3.org/2000/svg">
<path d="M14.4988 12.1425C15.4949 11.6842 16 10.4583 16 8.5C16 6.54167 15.4949 5.31583 14.4988 4.8575C13.3616 4.33333 11.8322 4.9825 10.4988 5.84083C11.3067 4.43 11.9169 2.80333 11.4243 1.595C10.9969 0.536667 9.84314 0 8 0C6.15686 0 5.00314 0.536667 4.57176 1.595C4.07922 2.80333 4.68941 4.42833 5.49725 5.845C4.1702 4.9825 2.63843 4.33333 1.50118 4.8575C0.505098 5.31583 0 6.54167 0 8.5C0 10.4583 0.505098 11.6842 1.50118 12.1425C1.78993 12.272 2.1007 12.337 2.41412 12.3333C3.38824 12.3333 4.50039 11.8058 5.49804 11.16C4.68941 12.5708 4.07843 14.1983 4.57176 15.41C5.00314 16.4633 6.15686 17 8 17C9.84314 17 10.9969 16.4633 11.4282 15.405C11.6635 14.8367 11.6471 14.175 11.4847 13.4883C12.4745 15.0058 13.3843 16.7792 13.818 18.6217C13.8436 18.7298 13.9023 18.8257 13.985 18.8942C14.0677 18.9628 14.1696 19 14.2745 19C14.3131 19 14.3516 18.995 14.389 18.985C14.449 18.969 14.5054 18.9407 14.555 18.9015C14.6046 18.8624 14.6465 18.8133 14.6783 18.7569C14.71 18.7006 14.731 18.6382 14.7401 18.5732C14.7491 18.5082 14.746 18.442 14.731 18.3783C14.138 15.8583 12.7545 13.5083 11.4227 11.695C12.1537 12.0708 12.9035 12.3308 13.5859 12.3308C13.8991 12.3353 14.2099 12.2712 14.4988 12.1425ZM5.43529 1.9925C5.70431 1.33333 6.56706 1 8 1C9.43294 1 10.2957 1.33333 10.5647 1.9925C10.8706 2.7425 10.4776 4.06333 9.45804 5.71C9.01236 6.4215 8.5254 7.10282 8 7.75C7.47468 7.10363 6.98772 6.42315 6.54196 5.7125C5.52235 4.06333 5.12941 2.7425 5.43529 1.9925ZM1.87529 11.225C1.2549 10.9392 0.941177 10.0225 0.941177 8.5C0.941177 6.9775 1.2549 6.06083 1.87529 5.775C2.04944 5.69958 2.23631 5.66299 2.42431 5.6675C3.15059 5.6675 4.17098 6.1075 5.37725 6.95083C6.04595 7.42431 6.68615 7.9417 7.29412 8.5C6.6859 9.05833 6.04543 9.57572 5.37647 10.0492C3.82431 11.1325 2.58118 11.55 1.87529 11.225ZM10.5647 15.0075C10.2957 15.6667 9.43294 16 8 16C6.56706 16 5.70431 15.6667 5.43529 15.0075C5.12941 14.2575 5.52235 12.9367 6.54196 11.29C6.98747 10.5784 7.47444 9.89704 8 9.25C8.52548 9.89624 9.01244 10.5767 9.45804 11.2875C10.4776 12.9367 10.8706 14.2567 10.5647 15.0075ZM10.6259 10.0492C9.95611 9.57581 9.31486 9.05841 8.70588 8.5C9.3141 7.94167 9.95457 7.42428 10.6235 6.95083C12.1733 5.8675 13.4165 5.45083 14.1224 5.775C14.7451 6.06083 15.0588 6.9775 15.0588 8.5C15.0588 10.0225 14.7451 10.9392 14.1247 11.225C13.4188 11.55 12.1757 11.1325 10.6259 10.0492Z" fill="#FCFCA8"/>
</svg>
