<svg width="22" height="22" viewBox="0 0 22 22" fill="none" xmlns="http://www.w3.org/2000/svg">
<path d="M1.53709 8.67422L1.53701 8.67438C1.48618 8.77558 1.46569 8.8893 1.47799 9.00187C1.49029 9.11444 1.53486 9.22105 1.60633 9.30888L1.60638 9.30894L10.5439 20.3089C10.599 20.3767 10.6685 20.4313 10.7473 20.4689C10.8262 20.5064 10.9124 20.5259 10.9998 20.5259C11.0871 20.5259 11.1733 20.5064 11.2522 20.4689C11.3311 20.4313 11.4006 20.3767 11.4557 20.3089L1.53709 8.67422ZM1.53709 8.67422L4.28705 3.1743L1.53709 8.67422ZM3.0852 8.20528L3.01284 8.35H3.17464H7.02464H7.10272L7.12166 8.27425L8.15291 4.14925L8.18397 4.025H8.05589H5.23714H5.17534L5.1477 4.08028L3.0852 8.20528ZM3.50602 9.525H3.29591L3.42841 9.68806L9.19791 16.7886L9.37097 16.6957L7.15309 9.59519L7.13117 9.525H7.05764H3.50602ZM8.49727 9.525H8.36124L8.40182 9.65483L10.9043 17.6615L10.9998 17.9668L11.0952 17.6615L13.5977 9.65483L13.6383 9.525H13.5023H8.49727ZM14.9433 9.525H14.8698L14.8478 9.59517L12.6286 16.6957L12.8016 16.7886L18.5711 9.68806L18.7036 9.525H18.4935H14.9433ZM18.8249 8.35H18.9867L18.9143 8.20528L16.8518 4.08028L16.8242 4.025H16.7624H13.9436H13.8156L13.8466 4.14925L14.8779 8.27425L14.8968 8.35H14.9749H18.8249ZM13.5573 8.35H13.6853L13.6543 8.22575L12.623 4.10075L12.6041 4.025H12.526H9.47352H9.39544L9.3765 4.10075L8.34525 8.22575L8.31419 8.35H8.44227H13.5573Z" fill="#FCFCA8" stroke="#191919" stroke-width="0.2"/>
</svg>
