<svg width="177" height="159" viewBox="0 0 177 159" fill="none" xmlns="http://www.w3.org/2000/svg">
<path d="M6.07013 20.1882C2.54872 21.1318 0.458963 24.7514 1.40252 28.2728L32.3991 143.954C33.3427 147.475 36.9622 149.565 40.4836 148.621L110.593 129.835C114.115 128.892 116.204 125.272 115.261 121.751L84.2643 6.07004C83.3207 2.54864 79.7011 0.458878 76.1797 1.40244L6.07013 20.1882Z" fill="#191919" stroke="white" stroke-width="0.5"/>
<path d="M8.54513 32.9339C7.6373 29.5459 9.64792 26.0634 13.036 25.1556L72.6291 9.18762C76.0172 8.27979 79.4996 10.2904 80.4075 13.6784L108.117 117.09C109.024 120.478 107.014 123.961 103.626 124.868L44.0325 140.836C40.6445 141.744 37.162 139.734 36.2542 136.346L8.54513 32.9339Z" fill="#FCFCA8"/>
<path fill-rule="evenodd" clip-rule="evenodd" d="M11.7851 29.2481C11.7203 29.0061 11.8639 28.7574 12.1059 28.6925L75.2046 11.7853C75.4466 11.7205 75.6953 11.8641 75.7602 12.1061L104.878 120.776C104.943 121.018 104.799 121.267 104.557 121.332L41.4587 138.239C41.2167 138.304 40.968 138.16 40.9031 137.918L11.7851 29.2481ZM12.7789 29.4515L41.6621 137.245L103.884 120.573L75.0012 12.7791L12.7789 29.4515Z" fill="#191919"/>
<path d="M12.2231 29.1309L16.605 27.9567L17.7791 32.3386L13.3973 33.5127L12.2231 29.1309Z" fill="#191919"/>
<path d="M40.1677 133.419L44.5496 132.245L45.7237 136.627L41.3418 137.801L40.1677 133.419Z" fill="#191919"/>
<path d="M98.8838 117.686L103.266 116.512L104.44 120.893L100.058 122.068L98.8838 117.686Z" fill="#191919"/>
<path d="M70.9392 13.3976L75.3211 12.2235L76.4952 16.6053L72.1133 17.7794L70.9392 13.3976Z" fill="#191919"/>
<path fill-rule="evenodd" clip-rule="evenodd" d="M50.2298 44.7773C30.1436 50.1594 18.2235 70.8055 23.6056 90.8918C28.9877 110.978 49.6339 122.898 69.7201 117.516C89.8063 112.134 101.726 91.4877 96.3443 71.4015C90.9622 51.3152 70.3161 39.3952 50.2298 44.7773ZM22.7292 91.1266C17.2174 70.5563 29.4247 49.4127 49.995 43.9009C70.5652 38.3891 91.7089 50.5964 97.2207 71.1667C102.732 91.7369 90.5252 112.881 69.9549 118.392C49.3847 123.904 28.241 111.697 22.7292 91.1266Z" fill="#191919"/>
<path fill-rule="evenodd" clip-rule="evenodd" d="M51.6393 50.0357C34.4571 54.6396 24.2604 72.3008 28.8644 89.483C33.4683 106.665 51.1295 116.862 68.3117 112.258C85.4939 107.654 95.6906 89.9928 91.0867 72.8106C86.4827 55.6284 68.8215 45.4317 51.6393 50.0357ZM27.988 89.7179C23.2544 72.0516 33.7383 53.893 51.4045 49.1593C69.0707 44.4257 87.2294 54.9096 91.963 72.5758C96.6967 90.242 86.2128 108.401 68.5466 113.134C50.8803 117.868 32.7217 107.384 27.988 89.7179Z" fill="#191919"/>
<path fill-rule="evenodd" clip-rule="evenodd" d="M19.1019 39.0282C18.5831 37.0922 19.7321 35.1022 21.6681 34.5834L70.7448 21.4333C72.6808 20.9146 74.6708 22.0635 75.1896 23.9995C75.7083 25.9356 74.5594 27.9256 72.6234 28.4443L23.5467 41.5944C21.6106 42.1131 19.6206 40.9642 19.1019 39.0282ZM21.9029 35.4598C20.4509 35.8489 19.5892 37.3413 19.9783 38.7934C20.3673 40.2454 21.8598 41.1071 23.3118 40.718L72.3886 27.5679C73.8406 27.1789 74.7023 25.6864 74.3132 24.2344C73.9241 22.7823 72.4316 21.9207 70.9796 22.3097L21.9029 35.4598Z" fill="#191919"/>
<path d="M71.327 91.1958C72.4031 90.3424 72.6425 88.767 72.039 86.5145C71.4354 84.2619 70.4403 83.0173 69.0817 82.8163C67.5303 82.5858 65.8612 83.8333 64.4963 85.2572C65.0487 83.3699 65.2931 81.299 64.3188 80.0705C63.4702 78.9931 61.8948 78.7536 59.6422 79.3572C57.3897 79.9608 56.1451 80.9559 55.9441 82.3144C55.7145 83.8656 56.9611 85.5349 58.385 86.8999C56.4974 86.3424 54.4253 86.0973 53.197 87.0726C52.1209 87.926 51.8814 89.5014 52.485 91.7539C53.0885 94.0065 54.0836 95.2511 55.4422 95.4521C55.8351 95.5065 56.2349 95.4795 56.6168 95.3726C57.8073 95.0536 59.0039 94.0827 60.0241 93.0131C59.4707 94.9007 59.2256 96.9728 60.2019 98.205C61.0538 99.2753 62.6292 99.5148 64.8817 98.9112C67.1343 98.3076 68.3789 97.3125 68.5799 95.9539C68.6923 95.2232 68.4682 94.4675 68.0582 93.7308C69.7355 95.1522 71.394 96.894 72.4919 98.8713C72.5564 98.9872 72.6578 99.0783 72.78 99.1301C72.9022 99.1819 73.0382 99.1913 73.1664 99.157C73.2135 99.1443 73.259 99.1259 73.3017 99.1022C73.37 99.0642 73.4302 99.0131 73.4788 98.9519C73.5274 98.8906 73.5634 98.8204 73.5849 98.7452C73.6063 98.67 73.6128 98.5913 73.6038 98.5136C73.5948 98.4359 73.5706 98.3608 73.5326 98.2924C72.0313 95.588 69.6162 93.338 67.4297 91.6884C68.4389 91.8813 69.4354 91.9348 70.2693 91.7114C70.6535 91.6139 71.0136 91.4384 71.327 91.1958ZM57.1219 82.4889C57.2476 81.6426 58.1992 80.9767 59.9504 80.5074C61.7017 80.0382 62.8588 80.1391 63.3907 80.8092C63.9957 81.5717 63.9226 83.2196 63.184 85.4476C62.8586 86.4119 62.4735 87.3551 62.0308 88.2715C61.1896 87.7001 60.3847 87.0768 59.621 86.4054C57.8666 84.8423 56.9793 83.4517 57.1219 82.4889ZM55.6167 94.2742C54.7704 94.1486 54.1045 93.197 53.6352 91.4457C53.166 89.6945 53.2669 88.5374 53.937 88.0054C54.1265 87.8617 54.3436 87.7584 54.5748 87.702C55.4624 87.4642 56.8451 87.6361 58.5792 88.2111C59.5423 88.5368 60.4842 88.9223 61.3993 89.3653C60.8281 90.2067 60.2048 91.0116 59.5332 91.7752C57.9701 93.5296 56.5795 94.4169 55.6167 94.2742ZM67.402 95.7795C67.2764 96.6258 66.3247 97.2917 64.5735 97.761C62.8223 98.2302 61.6652 98.1293 61.1332 97.4592C60.5282 96.6967 60.6014 95.0488 61.34 92.8208C61.6651 91.8564 62.0502 90.9132 62.4931 89.9969C63.3345 90.5681 64.1394 91.1914 64.903 91.863C66.6574 93.4261 67.5444 94.8157 67.402 95.7795ZM65.9486 90.0562C64.9842 89.7311 64.041 89.3459 63.1247 88.903C63.6959 88.0617 64.3192 87.2568 64.9908 86.4932C66.551 84.7396 67.9418 83.8532 68.9044 83.9949C69.7536 84.1198 70.4195 85.0714 70.8887 86.8227C71.358 88.5739 71.2571 89.731 70.587 90.2629C69.8245 90.8679 68.1765 90.7948 65.9486 90.0562Z" fill="#191919"/>
<path d="M66.8512 68.9577C67.2981 70.6254 68.4351 72.0152 69.9582 71.6071C71.4621 71.2042 71.7518 69.4321 71.3049 67.7643C70.8607 66.1062 69.7237 64.7164 68.2198 65.1194C66.6967 65.5275 66.4069 67.2996 66.8512 68.9577ZM68.1036 64.6856C69.7424 64.2464 71.6098 65.1616 72.24 67.5138C72.8522 69.7985 71.7107 71.5922 70.0719 72.0313C68.4138 72.4756 66.5368 71.563 65.9065 69.2108C65.2969 66.9358 66.4551 65.1273 68.1036 64.6856Z" fill="#191919"/>
<path d="M64.2564 66.2536L63.2822 66.6282C63.5083 67.5492 63.7589 68.4843 64.0146 69.4387L64.1567 69.9689C64.4072 70.9039 64.6578 71.839 64.9276 72.769L65.956 72.5967L66.049 72.9438L63.263 73.6903L63.1701 73.3432L64.089 72.9937C63.8603 72.0631 63.6001 71.1306 63.3643 70.2122L62.5965 67.3079L61.8074 74.0803L61.4122 74.1862L57.2566 68.7801C57.5212 69.6907 57.8911 70.9555 57.8937 70.9651L58.8107 74.3873L59.7768 74.2525L59.8697 74.5995L57.5465 75.222L57.4535 74.875L58.3576 74.5087L56.7296 68.3943L55.7249 68.5396L55.6345 68.2021L57.4276 67.7217L61.4873 73.0399L62.2573 66.4276L64.166 65.9161L64.2564 66.2536Z" fill="#191919"/>
<path d="M54.8153 68.7837L53.8412 69.1584C54.0576 70.082 54.3082 71.0171 54.5639 71.9714L54.706 72.5016C54.954 73.4271 55.2071 74.3718 55.484 75.2895L56.515 75.1269L56.608 75.4739L53.7449 76.2411L53.6519 75.8941L54.626 75.5194C54.4096 74.5958 54.159 73.6608 53.9059 72.716L53.7638 72.1858C53.5132 71.2507 53.2601 70.306 52.9832 69.3883L51.9522 69.5509L51.8618 69.2135L54.7249 68.4463L54.8153 68.7837Z" fill="#191919"/>
<path d="M50.9541 69.8183L49.98 70.1929C50.2061 71.1139 50.4567 72.049 50.7124 73.0034L50.8544 73.5336C51.105 74.4686 51.3556 75.4037 51.6254 76.3337L52.6538 76.1614L52.7468 76.5085L49.9608 77.255L49.8678 76.9079L50.7867 76.5584C50.558 75.6278 50.2978 74.6953 50.0621 73.7769L49.2942 70.8726L48.5052 77.645L48.1099 77.7509L43.9543 72.3448C44.219 73.2554 44.5889 74.5202 44.5914 74.5298L45.5084 77.952L46.4745 77.8172L46.5675 78.1642L44.2442 78.7867L44.1512 78.4397L45.0553 78.0734L43.4273 71.959L42.4227 72.1042L42.3323 71.7668L44.1253 71.2864L48.185 76.6046L48.955 69.9923L50.8637 69.4808L50.9541 69.8183Z" fill="#191919"/>
<path d="M98.8006 9.59041C95.2541 8.74585 91.6945 10.9362 90.8499 14.4826L63.1053 130.986C62.2607 134.533 64.451 138.092 67.9975 138.937L138.606 155.752C142.152 156.596 145.712 154.406 146.556 150.86L174.301 34.356C175.146 30.8096 172.955 27.2499 169.409 26.4054L98.8006 9.59041Z" fill="#191919" stroke="white" stroke-width="0.5"/>
<path d="M95.3388 20.4978C96.0861 17.3599 99.1005 15.3896 102.072 16.0972L163.555 30.739C166.526 31.4466 168.329 34.564 167.581 37.702L142.066 144.844C141.319 147.982 138.304 149.952 135.333 149.245L73.8502 134.603C70.879 133.895 69.0762 130.778 69.8235 127.64L95.3388 20.4978Z" fill="white"/>
<path d="M101.424 36.9851C101.376 37.1855 101.501 37.3428 101.693 37.3887C101.888 37.435 102.068 37.3505 102.116 37.1501C102.164 36.9478 102.041 36.791 101.847 36.7447C101.654 36.6988 101.472 36.7828 101.424 36.9851ZM102.167 38.0092L102.244 37.9967C102.313 38.0153 102.413 38.0516 102.454 38.0778C102.467 38.0849 102.476 38.0994 102.472 38.1149C102.464 38.148 102.434 38.1736 102.414 38.1772C102.363 38.1588 102.249 38.1276 102.191 38.1137C102.055 38.0793 101.161 37.8787 101.057 37.86C101.007 37.8523 100.903 37.8481 100.853 37.8525C100.789 37.8125 100.726 37.7564 100.687 37.704C100.682 37.6987 100.681 37.6924 100.685 37.6851L100.705 37.6611C100.767 37.6881 100.856 37.7176 100.917 37.732C100.975 37.7459 101.242 37.8075 101.515 37.8685L101.61 37.4716C101.365 37.3884 101.221 37.1795 101.276 36.9499C101.335 36.7009 101.588 36.5782 101.87 36.6455C102.153 36.7127 102.323 36.9363 102.264 37.1854C102.211 37.4091 101.997 37.5308 101.747 37.5021L101.652 37.899C101.89 37.9516 102.107 37.9992 102.167 38.0092ZM104.188 37.8576L104.265 37.8451C104.335 37.8637 104.435 37.9 104.476 37.9262C104.489 37.9333 104.498 37.9478 104.494 37.9634C104.486 37.9964 104.456 38.0201 104.437 38.0237C104.385 38.0053 104.272 37.9741 104.213 37.9602C104.078 37.9258 103.184 37.7252 103.079 37.7064C103.03 37.6987 102.926 37.6926 102.876 37.6971C102.811 37.659 102.748 37.6029 102.709 37.5524C102.704 37.5471 102.703 37.5408 102.707 37.5335L102.727 37.5095C102.789 37.5365 102.878 37.5661 102.939 37.5804C103.057 37.6106 104.05 37.8349 104.188 37.8576ZM103.761 38.7118L103.826 38.6965C103.879 38.709 103.957 38.7338 103.992 38.7504C104.007 38.7561 104.013 38.7677 104.009 38.7813C104.002 38.8144 103.984 38.8369 103.974 38.8428C103.967 38.8472 103.956 38.8488 103.947 38.8465L103.053 38.6376C102.946 38.6122 102.919 38.5688 102.939 38.4832L102.984 38.2964C102.964 38.269 102.927 38.2417 102.886 38.2238L102.901 38.1882C102.904 38.1828 102.911 38.1784 102.925 38.1816C102.977 38.1941 103.101 38.2277 103.152 38.248C103.296 38.2823 103.694 38.371 103.771 38.3852L103.806 38.3833C103.824 38.3361 103.852 38.2257 103.861 38.1804C103.733 38.1479 103.334 38.0592 103.252 38.0436C103.214 38.0368 103.139 38.0332 103.089 38.0357C103.036 38.0004 102.989 37.9563 102.955 37.9174C102.949 37.9078 102.95 37.9019 102.954 37.8965L102.97 37.8779C103.019 37.8997 103.091 37.9251 103.139 37.9367C103.244 37.9617 103.756 38.0773 103.887 38.1025L103.95 38.0887C103.959 38.0867 103.971 38.0895 103.981 38.0961C103.999 38.1105 104.033 38.1373 104.046 38.1527C104.054 38.1608 104.052 38.1706 104.046 38.1794L104.011 38.2205C103.994 38.2779 103.951 38.3706 103.924 38.4155L103.955 38.4414C103.962 38.4471 103.963 38.4515 103.961 38.4592C103.956 38.4806 103.941 38.4978 103.934 38.5042L103.13 38.3229L103.083 38.5194C103.077 38.5447 103.084 38.5568 103.108 38.5623C103.259 38.6004 103.641 38.6893 103.761 38.7118ZM103.193 37.2647L103.256 36.9982C103.231 36.9655 103.187 36.9344 103.139 36.9107L103.159 36.8702C103.163 36.8629 103.17 36.8604 103.183 36.8636C103.246 36.8785 103.351 36.9098 103.395 36.9326C103.414 36.9411 103.423 36.9556 103.417 36.977L103.393 37.0636L103.331 37.3204C103.322 37.3593 103.331 37.3738 103.368 37.3845C103.509 37.4203 103.892 37.5053 104.014 37.5282L104.081 37.5071C104.139 37.521 104.223 37.5492 104.26 37.5662C104.273 37.5714 104.282 37.5839 104.279 37.5976C104.271 37.6326 104.252 37.6527 104.241 37.6605C104.234 37.665 104.224 37.6646 104.214 37.6623L103.324 37.4626C103.206 37.4344 103.168 37.3678 103.193 37.2647ZM105.514 37.5114L105.53 37.4967C105.702 37.5685 105.887 37.6188 106.025 37.6517C106.043 37.6559 106.052 37.6621 106.052 37.6766C106.055 37.698 106.042 37.7379 106.026 37.7507C106.016 37.7585 106.008 37.7586 105.996 37.7559C105.891 37.7308 105.734 37.6996 105.643 37.6841C105.625 37.6819 105.618 37.6781 105.606 37.667C105.573 37.6364 105.533 37.5796 105.51 37.5289C105.508 37.5202 105.509 37.5143 105.514 37.5114ZM105.562 38.6906C105.702 38.724 105.842 38.6608 105.879 38.5071C105.916 38.3534 105.819 38.2337 105.679 38.2003C105.539 38.167 105.398 38.2301 105.362 38.3838C105.325 38.5375 105.422 38.6572 105.562 38.6906ZM105.701 38.105C105.917 38.1565 106.068 38.3362 106.019 38.5405C105.971 38.7448 105.755 38.8374 105.539 38.7859C105.323 38.7345 105.173 38.5547 105.221 38.3505C105.27 38.1462 105.485 38.0536 105.701 38.105ZM106.071 37.9525L106.138 37.9396C106.19 37.9521 106.269 37.9832 106.303 38.0037C106.314 38.0104 106.32 38.022 106.317 38.0317C106.308 38.0687 106.28 38.0928 106.262 38.0988C106.227 38.0841 106.134 38.0599 106.091 38.0497C106.013 38.0312 105.519 37.9217 105.444 37.9099C105.408 37.9035 105.333 37.9 105.295 37.9053C105.247 37.8733 105.193 37.8215 105.161 37.7768C105.154 37.7691 105.156 37.7632 105.161 37.7583L105.178 37.7378C105.232 37.7609 105.307 37.7849 105.352 37.7955C105.433 37.8169 105.982 37.9374 106.071 37.9525ZM106.638 38.4968L106.709 38.4746C106.766 38.4861 106.845 38.509 106.878 38.5251C106.893 38.5327 106.901 38.5491 106.897 38.5647C106.892 38.5982 106.873 38.6227 106.858 38.6272C106.848 38.6332 106.832 38.6314 106.819 38.6281L106.479 38.5533L106.361 39.0475C106.334 39.1604 106.273 39.3391 106.219 39.4435L106.138 39.424C106.151 39.3409 106.191 39.1488 106.211 39.0632L106.534 37.7072C106.511 37.6585 106.457 37.6086 106.393 37.5686L106.419 37.5256C106.423 37.5202 106.427 37.5172 106.443 37.521C106.513 37.5396 106.629 37.5941 106.68 37.6309C106.696 37.6409 106.699 37.6559 106.694 37.6753L106.664 37.7771L106.499 38.4697L106.638 38.4968ZM108.385 39.1389L108.462 39.1245C108.532 39.1431 108.631 39.1813 108.673 39.2056C108.685 39.2147 108.695 39.2272 108.69 39.2447C108.682 39.2778 108.652 39.3014 108.632 39.307C108.581 39.2886 108.467 39.2574 108.409 39.2435C108.343 39.2277 108.098 39.1693 107.852 39.1148L107.786 39.3891C107.761 39.4942 107.697 39.6783 107.646 39.7773L107.565 39.7578C107.58 39.6689 107.616 39.4924 107.637 39.401L107.713 39.0838C107.504 39.0362 107.319 38.996 107.275 38.9897C107.225 38.982 107.122 38.9759 107.072 38.9803C107.007 38.9423 106.944 38.8843 106.905 38.8318C106.901 38.8265 106.9 38.8202 106.903 38.8149L106.924 38.7889C106.985 38.8178 107.074 38.8474 107.135 38.8618C107.253 38.892 108.246 39.1143 108.385 39.1389ZM107.386 38.5495L107.433 38.353C107.411 38.3231 107.374 38.2959 107.332 38.2755L107.349 38.2404C107.352 38.235 107.359 38.2306 107.371 38.2334C107.425 38.2463 107.553 38.2808 107.6 38.3002C107.736 38.3326 108.162 38.4259 108.247 38.44L108.288 38.4376C108.309 38.3869 108.341 38.2609 108.351 38.2099C108.219 38.1784 107.84 38.0943 107.755 38.0782C107.72 38.0718 107.639 38.0669 107.584 38.0704C107.526 38.0318 107.477 37.9872 107.442 37.942C107.434 37.9338 107.435 37.93 107.441 37.9231L107.455 37.904C107.508 37.9267 107.586 37.9516 107.637 37.9636C107.739 37.9901 108.229 38.0987 108.373 38.1267L108.446 38.1132C108.455 38.1093 108.471 38.113 108.477 38.1207C108.497 38.1335 108.528 38.1638 108.541 38.1791C108.546 38.1864 108.545 38.1966 108.537 38.2049L108.505 38.2528C108.486 38.318 108.439 38.4199 108.408 38.4702L108.443 38.4951C108.45 38.5008 108.451 38.5071 108.449 38.5149C108.443 38.5382 108.431 38.5558 108.419 38.5613L107.578 38.3751L107.525 38.5969C107.519 38.6222 107.526 38.6343 107.553 38.6408C107.71 38.6803 108.096 38.7638 108.216 38.7843L108.278 38.7681C108.336 38.78 108.423 38.8067 108.458 38.8233C108.473 38.829 108.478 38.8405 108.475 38.8542C108.467 38.8872 108.452 38.9063 108.441 38.9118C108.433 38.9182 108.425 38.9183 108.415 38.9159L107.499 38.7141C107.393 38.6911 107.365 38.639 107.386 38.5495ZM110.184 39.9212L110.261 39.9087C110.33 39.9274 110.431 39.9636 110.472 39.9898C110.484 39.997 110.493 40.0114 110.49 40.027C110.482 40.0601 110.451 40.0856 110.432 40.0892C110.381 40.0709 110.267 40.0397 110.208 40.0257C110.073 39.9914 109.179 39.7907 109.074 39.772C109.025 39.7643 108.921 39.7601 108.87 39.7646C108.806 39.7245 108.743 39.6685 108.704 39.616C108.699 39.6108 108.699 39.6045 108.703 39.5971L108.723 39.5732C108.784 39.6001 108.874 39.6297 108.934 39.6441C108.992 39.658 109.259 39.7195 109.533 39.7805L109.642 39.3233L109.361 39.2605C109.242 39.2322 109.207 39.1705 109.233 39.0615L109.341 38.6082C109.312 38.5746 109.266 38.5431 109.217 38.5169L109.237 38.4764C109.241 38.4691 109.247 38.4666 109.259 38.4694C109.319 38.4838 109.453 38.526 109.507 38.5491C109.687 38.5898 110.079 38.6771 110.188 38.6968L110.255 38.68C110.31 38.6911 110.397 38.7178 110.438 38.7338C110.453 38.7414 110.46 38.7534 110.456 38.769C110.449 38.7982 110.434 38.8212 110.422 38.8286C110.414 38.835 110.404 38.8346 110.39 38.8314L109.485 38.6343L109.369 39.1226C109.361 39.1557 109.369 39.1721 109.402 39.1799C109.538 39.2143 109.932 39.3021 110.059 39.324L110.125 39.3068C110.181 39.3202 110.269 39.3474 110.304 39.364C110.319 39.3716 110.326 39.3836 110.323 39.3972C110.315 39.4303 110.3 39.4513 110.288 39.4568C110.281 39.4613 110.27 39.4628 110.261 39.4605L109.778 39.3538L109.669 39.811C109.908 39.8637 110.125 39.9112 110.184 39.9212ZM101.356 40.6596L101.317 40.642C101.31 40.6382 101.307 40.6315 101.313 40.6164C101.412 40.381 101.519 40.0363 101.574 39.8068C101.403 39.766 100.938 39.6634 100.837 39.6456C100.786 39.6355 100.693 39.6298 100.642 39.6342C100.589 39.5989 100.532 39.5442 100.498 39.499C100.49 39.4889 100.489 39.4826 100.495 39.4758L100.514 39.4557C100.57 39.4812 100.646 39.5056 100.699 39.5181C100.804 39.5432 101.437 39.6836 101.592 39.7144L101.672 39.6965C101.683 39.6949 101.696 39.6982 101.705 39.7044C101.726 39.7216 101.762 39.7591 101.776 39.7769C101.784 39.787 101.782 39.7947 101.776 39.8035L101.732 39.8608C101.673 40.0914 101.522 40.4297 101.383 40.6515C101.377 40.6603 101.366 40.6619 101.356 40.6596ZM101.475 40.9139L101.552 40.9014C101.621 40.92 101.721 40.9563 101.762 40.9825C101.775 40.9896 101.784 41.0041 101.78 41.0196C101.772 41.0527 101.742 41.0763 101.722 41.0819C101.671 41.0635 101.557 41.0323 101.499 41.0184C101.363 40.984 100.469 40.7834 100.365 40.7647C100.315 40.757 100.211 40.7528 100.161 40.7572C100.097 40.7172 100.034 40.6592 99.995 40.6087C99.99 40.6034 99.99 40.5952 99.9933 40.5898L100.013 40.5658C100.075 40.5928 100.164 40.6223 100.225 40.6367C100.277 40.6492 100.499 40.7021 100.745 40.7566L100.867 40.2265C100.846 40.1947 100.803 40.1578 100.759 40.1306L100.781 40.0887C100.784 40.0852 100.789 40.0823 100.804 40.086C100.864 40.1004 100.972 40.1423 101.017 40.1695C101.031 40.179 101.034 40.1902 101.031 40.2057L101.001 40.2851L100.876 40.7857C101.145 40.8458 101.407 40.902 101.475 40.9139ZM102.835 40.7959L102.599 40.3944C102.454 40.5284 102.266 40.644 102.045 40.727C102.036 40.731 102.03 40.7296 102.024 40.7219L102.009 40.6978C102.005 40.6886 102.006 40.6848 102.017 40.6793C102.307 40.5242 102.546 40.2994 102.662 40.0803C102.65 40.0446 102.615 39.9993 102.573 39.9625L102.607 39.9233C102.612 39.9184 102.618 39.9178 102.629 39.9225C102.697 39.9509 102.786 40.0071 102.819 40.0417C102.832 40.0551 102.835 40.0682 102.831 40.0838C102.83 40.0998 102.824 40.1149 102.818 40.1237C102.778 40.1945 102.727 40.2625 102.666 40.3281L102.826 40.582L102.898 40.6341C102.917 40.6756 102.938 40.7404 102.944 40.7747C102.947 40.798 102.946 40.8121 102.938 40.8204C102.922 40.8415 102.886 40.8472 102.866 40.8343C102.855 40.8296 102.843 40.8123 102.835 40.7959ZM102.938 41.6203C103.098 41.6584 103.237 41.5928 103.273 41.4391C103.31 41.2873 103.216 41.1642 103.056 41.1262C102.896 41.0882 102.759 41.1562 102.723 41.3079C102.686 41.4616 102.779 41.5823 102.938 41.6203ZM103.078 41.0347C103.321 41.0927 103.465 41.273 103.417 41.4734C103.367 41.6835 103.156 41.7853 102.913 41.7274C102.67 41.6694 102.527 41.4833 102.577 41.2731C102.625 41.0728 102.835 40.9768 103.078 41.0347ZM103.513 39.9666L103.539 39.9255C103.543 39.9182 103.55 39.9157 103.564 39.9189C103.629 39.9367 103.74 39.9878 103.785 40.0232C103.802 40.0332 103.806 40.0487 103.8 40.0657L103.771 40.1597L103.604 40.864C103.579 40.9671 103.529 41.101 103.485 41.1728L103.403 41.1534C103.411 41.0854 103.44 40.9463 103.457 40.8763L103.515 40.6331L103.26 40.5787L103.242 40.6545C103.216 40.7674 103.167 40.8916 103.124 40.9595L103.047 40.941C103.053 40.8725 103.082 40.7417 103.1 40.6658L103.235 40.0997C103.216 40.0582 103.169 40.014 103.117 39.9811L103.143 39.9401C103.147 39.9328 103.154 39.9303 103.169 39.934C103.229 39.9503 103.331 39.9991 103.372 40.0317C103.386 40.0412 103.389 40.0543 103.385 40.0718L103.361 40.1565L103.28 40.495L103.535 40.5494L103.643 40.0961C103.621 40.0498 103.572 40.0033 103.513 39.9666ZM105.511 41.0018L105.582 40.9816C105.639 40.9931 105.718 41.016 105.751 41.0321C105.765 41.0397 105.774 41.0561 105.771 41.0698C105.764 41.1052 105.747 41.1277 105.731 41.1342C105.721 41.1382 105.705 41.1384 105.691 41.1351L105.351 41.0603C105.323 41.1625 105.28 41.2634 105.243 41.3162L105.159 41.2963C105.167 41.2322 105.195 41.1033 105.212 41.0333L105.337 40.506C105.312 40.4568 105.26 40.4074 105.196 40.3674L105.222 40.3244C105.226 40.319 105.233 40.3165 105.246 40.3198C105.318 40.3389 105.432 40.3929 105.481 40.4292C105.497 40.4392 105.5 40.4543 105.495 40.4737L105.467 40.574L105.372 40.9747L105.511 41.0018ZM105.269 41.6041L105.327 41.5952C105.373 41.6083 105.442 41.6371 105.471 41.6562C105.481 41.6628 105.487 41.6744 105.484 41.6842C105.478 41.7114 105.451 41.7296 105.436 41.7342C105.405 41.7229 105.326 41.7019 105.287 41.6927C105.219 41.6764 104.794 41.5875 104.73 41.5785C104.695 41.5721 104.628 41.5685 104.594 41.5728C104.552 41.5441 104.502 41.4996 104.476 41.4625C104.47 41.4548 104.472 41.447 104.475 41.4436L104.491 41.425C104.538 41.4444 104.603 41.4659 104.644 41.4757C104.718 41.4933 105.189 41.5933 105.269 41.6041ZM104.235 41.4584L104.147 41.8261C104.143 41.8436 104.147 41.8528 104.166 41.8574C104.281 41.8765 104.442 41.884 104.567 41.8767L104.571 41.8573C104.605 41.7172 104.755 41.6379 104.948 41.6838C105.141 41.7297 105.237 41.8678 105.204 42.0079C105.17 42.15 105.021 42.2316 104.828 42.1858C104.677 42.1496 104.582 42.0531 104.567 41.9447C104.438 41.9694 104.282 41.9755 104.155 41.9657C104.137 41.9654 104.106 41.9624 104.097 41.9601C104.044 41.9476 104.013 41.9052 104.007 41.8524C104.006 41.8398 104.009 41.8179 104.018 41.7829L104.109 41.3977C104.086 41.3654 104.043 41.3325 103.995 41.3087L104.015 41.2663C104.02 41.257 104.028 41.2569 104.039 41.2597C104.098 41.2736 104.2 41.304 104.24 41.324C104.258 41.3344 104.265 41.3484 104.26 41.3679L104.235 41.4584ZM104.851 42.0924C104.967 42.1202 105.055 42.0731 105.077 41.9778C105.1 41.8825 105.044 41.7992 104.927 41.7714C104.81 41.7435 104.723 41.7925 104.7 41.8879C104.677 41.9832 104.734 42.0646 104.851 42.0924ZM104.767 41.2686L104.785 41.2524C104.932 41.3202 105.08 41.3617 105.203 41.3909C105.218 41.3946 105.225 41.4003 105.226 41.4129C105.227 41.4338 105.217 41.4683 105.205 41.4777C105.197 41.486 105.188 41.4861 105.179 41.4838C105.091 41.463 104.97 41.4362 104.895 41.4244C104.879 41.4207 104.874 41.4173 104.863 41.4107C104.827 41.3795 104.79 41.3295 104.767 41.2851C104.763 41.2759 104.764 41.2721 104.767 41.2686ZM104.136 41.1059L104.06 41.0878C104.06 41.0548 104.064 41.0106 104.068 40.9747L104.157 40.4221C104.14 40.3956 104.105 40.3625 104.07 40.3396L104.089 40.2992C104.093 40.2938 104.099 40.2932 104.111 40.296C104.169 40.3099 104.28 40.3446 104.334 40.3697C104.456 40.3989 104.706 40.4543 104.829 40.4753L104.906 40.4545C104.912 40.452 104.928 40.4558 104.935 40.4615C104.955 40.4787 104.995 40.5127 105.011 40.531C105.015 40.5382 105.015 40.5465 105.009 40.5572L104.968 40.6154C104.927 40.7599 104.871 40.9294 104.814 41.0721L104.843 41.0956C104.852 41.1018 104.854 41.1105 104.852 41.1202C104.845 41.1475 104.83 41.1685 104.818 41.1759L104.18 41.0321C104.169 41.0623 104.155 41.0858 104.136 41.1059ZM104.311 40.4548L104.204 40.9474C104.334 40.9804 104.557 41.0294 104.663 41.0486L104.701 41.0472L104.822 40.5661C104.666 40.529 104.472 40.487 104.311 40.4548ZM106.418 40.9218C106.257 40.8833 106.106 40.9626 106.065 41.1338C106.024 41.307 106.123 41.4436 106.285 41.4821C106.446 41.5206 106.596 41.4432 106.637 41.2701C106.678 41.0989 106.58 40.9603 106.418 40.9218ZM106.259 41.5891C106.014 41.5307 105.87 41.3257 105.923 41.1C105.976 40.8782 106.198 40.7603 106.443 40.8187C106.686 40.8766 106.83 41.0817 106.778 41.3035C106.724 41.5291 106.502 41.6471 106.259 41.5891ZM106.386 42.343L106.256 42.0941C106.117 42.2131 105.933 42.3092 105.722 42.3698C105.708 42.3748 105.704 42.3739 105.697 42.3681L105.681 42.3436C105.677 42.3344 105.68 42.331 105.689 42.325C105.94 42.2141 106.152 42.0487 106.263 41.884C106.25 41.8502 106.216 41.805 106.176 41.7729L106.21 41.7357C106.215 41.7308 106.221 41.7302 106.235 41.7354C106.298 41.7609 106.383 41.8119 106.416 41.8445C106.428 41.8574 106.433 41.869 106.429 41.8865C106.425 41.9021 106.418 41.9148 106.412 41.9236C106.387 41.9607 106.355 41.9965 106.322 42.0318L106.414 42.1749L106.466 42.216C106.474 42.2489 106.483 42.2983 106.485 42.3254C106.485 42.3419 106.484 42.3541 106.478 42.3629C106.463 42.38 106.435 42.3856 106.417 42.3771C106.406 42.3724 106.395 42.3575 106.386 42.343ZM107.048 42.4123L107.116 42.4698C107.134 42.5152 107.149 42.5824 107.153 42.6163C107.158 42.642 107.154 42.6576 107.145 42.6678C107.131 42.685 107.099 42.6897 107.079 42.6788C107.07 42.6745 107.056 42.6548 107.046 42.6379L106.847 42.2617C106.708 42.3787 106.528 42.4797 106.321 42.5475C106.309 42.5529 106.303 42.5516 106.299 42.5443L106.284 42.5222C106.278 42.5125 106.279 42.5087 106.29 42.5032C106.553 42.3766 106.774 42.1907 106.885 42.0076C106.876 41.9684 106.841 41.9169 106.8 41.8805L106.834 41.8432C106.84 41.8364 106.846 41.8339 106.859 41.841C106.922 41.8723 107.01 41.9344 107.041 41.9685C107.054 41.982 107.058 41.9974 107.055 42.011C107.051 42.0266 107.044 42.0413 107.038 42.0501C107.005 42.1018 106.964 42.1498 106.916 42.1979L107.048 42.4123ZM107.388 41.4592L107.459 41.4371C107.516 41.4485 107.595 41.4714 107.628 41.4876C107.643 41.4952 107.651 41.5116 107.647 41.5271C107.641 41.5626 107.623 41.5851 107.608 41.5897C107.598 41.5956 107.582 41.5958 107.568 41.5925L107.229 41.5158L107.216 41.5702C107.188 41.687 107.139 41.8132 107.094 41.8806L107.013 41.8611C107.02 41.7951 107.049 41.656 107.067 41.5821L107.217 40.9537C107.193 40.9049 107.139 40.8551 107.077 40.8155L107.101 40.7721C107.107 40.7672 107.112 40.7642 107.127 40.7679C107.197 40.7865 107.311 40.8406 107.362 40.8774C107.376 40.8869 107.381 40.9024 107.376 40.9218L107.346 41.0216L107.249 41.4321L107.388 41.4592ZM108.147 42.1827C108.316 42.223 108.472 42.1369 108.519 41.9384C108.566 41.7419 108.466 41.5927 108.297 41.5523C108.128 41.512 107.973 41.6006 107.926 41.7971C107.879 41.9955 107.977 42.1424 108.147 42.1827ZM109.071 41.2905L109.097 41.2475C109.101 41.2422 109.105 41.2392 109.121 41.2429C109.191 41.2615 109.307 41.316 109.358 41.3528C109.374 41.3628 109.377 41.3778 109.372 41.3973L109.342 41.499L109.039 42.7695C109.012 42.8823 108.951 43.061 108.897 43.1654L108.816 43.146C108.829 43.0628 108.869 42.8708 108.889 42.7852L109.056 42.0848C108.99 42.0671 108.9 42.0477 108.86 42.0443C108.822 42.0394 108.764 42.0419 108.726 42.0472C108.701 42.031 108.677 42.0109 108.657 41.9917C108.59 42.2287 108.37 42.351 108.121 42.2916C107.864 42.2305 107.718 42.0128 107.778 41.7618C107.838 41.5128 108.066 41.3841 108.322 41.4453C108.556 41.5009 108.695 41.6862 108.672 41.9091C108.707 41.9194 108.744 41.9282 108.775 41.9356C108.837 41.9504 108.982 41.9808 109.077 41.9972L109.212 41.4291C109.189 41.3804 109.135 41.3306 109.071 41.2905ZM110.862 43.1852L110.939 43.1727C111.008 43.1914 111.109 43.2276 111.15 43.2538C111.163 43.261 111.171 43.2754 111.168 43.291C111.16 43.3241 111.13 43.3477 111.11 43.3532C111.059 43.3349 110.945 43.3036 110.886 43.2897C110.751 43.2554 109.857 43.0547 109.752 43.036C109.703 43.0283 109.599 43.0222 109.549 43.0266C109.484 42.9885 109.422 42.9305 109.382 42.88C109.378 42.8728 109.377 42.8665 109.381 42.8611L109.401 42.8371C109.462 42.8641 109.552 42.8937 109.612 42.9081C109.653 42.9178 109.791 42.9507 109.963 42.9895L110.004 42.7485C109.986 42.7176 109.948 42.6817 109.904 42.6589L109.924 42.6164C109.926 42.6106 109.932 42.6081 109.948 42.6118C110.008 42.6262 110.103 42.661 110.148 42.6862C110.161 42.6934 110.166 42.7049 110.16 42.722L110.138 42.8052L110.088 43.0173L110.535 43.1176L110.612 42.8625C110.598 42.8263 110.562 42.7869 110.522 42.7568L110.547 42.7196C110.553 42.7128 110.559 42.7122 110.571 42.715C110.632 42.7357 110.718 42.7789 110.758 42.8109C110.774 42.8209 110.777 42.832 110.772 42.8471L110.737 42.9252L110.656 43.1424C110.756 43.1641 110.83 43.1798 110.862 43.1852ZM110.376 42.6192C110.09 42.551 109.918 42.3332 109.976 42.0881C110.034 41.8429 110.286 41.7261 110.572 41.7943C110.856 41.8619 111.029 42.0798 110.97 42.3249C110.912 42.5701 110.66 42.6869 110.376 42.6192ZM110.549 41.8935C110.352 41.8467 110.171 41.9268 110.124 42.1233C110.077 42.3198 110.203 42.4731 110.399 42.52C110.596 42.5668 110.776 42.4862 110.822 42.2897C110.869 42.0932 110.745 41.9403 110.549 41.8935ZM111.476 43.5844C111.402 43.5667 111.361 43.4954 111.378 43.4254C111.395 43.3534 111.464 43.306 111.538 43.3237C111.612 43.3413 111.652 43.4146 111.635 43.4865C111.618 43.5566 111.55 43.602 111.476 43.5844ZM112.268 43.8904L114.214 44.3539L114.677 42.4083L112.732 41.9448L112.268 43.8904Z" fill="black"/>
</svg>
