<svg width="120" height="32" viewBox="0 0 120 32" fill="none" xmlns="http://www.w3.org/2000/svg">
<path d="M105.755 30.448C103.307 30.448 101.099 29.932 99.1313 28.9C97.1633 27.868 95.6033 26.356 94.4513 24.364C93.3233 22.348 92.7593 19.948 92.7593 17.164C92.7593 14.476 93.3353 12.136 94.4873 10.144C95.6393 8.12802 97.1993 6.59202 99.1673 5.53602C101.135 4.45602 103.331 3.91602 105.755 3.91602C108.155 3.91602 110.339 4.45602 112.307 5.53602C114.275 6.59202 115.835 8.12802 116.987 10.144C118.139 12.136 118.715 14.476 118.715 17.164C118.715 19.948 118.139 22.348 116.987 24.364C115.859 26.356 114.311 27.868 112.343 28.9C110.375 29.932 108.179 30.448 105.755 30.448ZM98.1233 17.164C98.1233 19.636 98.4593 21.736 99.1313 23.464C99.8033 25.168 100.715 26.452 101.867 27.316C103.019 28.18 104.315 28.612 105.755 28.612C107.171 28.612 108.455 28.18 109.607 27.316C110.759 26.452 111.671 25.156 112.343 23.428C113.015 21.7 113.351 19.612 113.351 17.164C113.351 14.812 113.015 12.772 112.343 11.044C111.671 9.31602 110.759 8.00802 109.607 7.12002C108.455 6.20802 107.171 5.75202 105.755 5.75202C104.339 5.75202 103.043 6.20802 101.867 7.12002C100.715 8.00802 99.8033 9.31602 99.1313 11.044C98.4593 12.772 98.1233 14.812 98.1233 17.164Z" fill="#FCFCA8"/>
<path d="M55.8872 30.16C56.3912 29.632 56.7992 28.972 57.1112 28.18C57.4232 27.388 57.5792 26.296 57.5792 24.904V9.46004C57.5792 8.06804 57.4232 6.97604 57.1112 6.18404C56.7992 5.39204 56.3912 4.73204 55.8872 4.20404H59.9552L60.0272 4.31204V4.20404L71.5832 21.592L83.1032 4.20404H87.1712C86.6672 4.70804 86.2472 5.36804 85.9112 6.18404C85.5992 6.97604 85.4432 8.06804 85.4432 9.46004V24.904C85.4432 26.296 85.5992 27.388 85.9112 28.18C86.2472 28.996 86.6672 29.656 87.1712 30.16H80.4032V11.656L71.5832 24.976L62.6552 11.548L62.6192 30.16H55.8872Z" fill="#FCFCA8"/>
<path d="M40.5718 30.16C41.0758 29.632 41.4838 28.972 41.7958 28.18C42.1318 27.388 42.2998 26.296 42.2998 24.904V9.46004C42.2998 8.06804 42.1318 6.97604 41.7958 6.18404C41.4838 5.39204 41.0758 4.73204 40.5718 4.20404H49.0318C48.5278 4.73204 48.1078 5.39204 47.7718 6.18404C47.4598 6.97604 47.3038 8.06804 47.3038 9.46004V24.904C47.3038 26.296 47.4598 27.388 47.7718 28.18C48.1078 28.972 48.5278 29.632 49.0318 30.16H40.5718Z" fill="#FCFCA8"/>
<path d="M2.43994 30.16C2.94394 29.632 3.35194 28.972 3.66394 28.18C3.97594 27.388 4.13194 26.296 4.13194 24.904V9.46004C4.13194 8.06804 3.97594 6.97604 3.66394 6.18404C3.35194 5.39204 2.94394 4.73204 2.43994 4.20404H6.50794L6.57994 4.31204V4.20404L18.1359 21.592L29.6559 4.20404H33.7239C33.2199 4.70804 32.7999 5.36804 32.4639 6.18404C32.1519 6.97604 31.9959 8.06804 31.9959 9.46004V24.904C31.9959 26.296 32.1519 27.388 32.4639 28.18C32.7999 28.996 33.2199 29.656 33.7239 30.16H26.9559V11.656L18.1359 24.976L9.20794 11.548L9.17194 30.16H2.43994Z" fill="#FCFCA8"/>
<path fill-rule="evenodd" clip-rule="evenodd" d="M93.582 24.8585L93.5785 24.8523C92.3515 22.6593 91.7592 20.084 91.7592 17.164C91.7592 14.331 92.3673 11.8132 93.6203 9.64561C94.8606 7.47599 96.5529 5.80492 98.6903 4.65706C100.816 3.49129 103.179 2.91602 105.755 2.91602C108.31 2.91602 110.66 3.49211 112.784 4.65706C114.922 5.80492 116.614 7.47599 117.854 9.64561C119.107 11.8132 119.715 14.331 119.715 17.164C119.715 20.0864 119.11 22.6639 117.857 24.858C117.856 24.8587 117.856 24.8594 117.855 24.8602L116.987 24.3641L117.857 24.8568C117.857 24.8572 117.857 24.8576 117.857 24.858C116.637 27.0113 114.951 28.6618 112.808 29.7856C110.684 30.8994 108.326 31.448 105.755 31.448C103.162 31.448 100.792 30.9002 98.6668 29.7856C96.5252 28.6626 94.8287 27.0142 93.5856 24.8646L93.582 24.8585ZM116.987 10.144C115.835 8.12802 114.275 6.59202 112.307 5.53602C110.339 4.45602 108.155 3.91602 105.755 3.91602C103.331 3.91602 101.135 4.45602 99.1672 5.53602C97.1992 6.59202 95.6392 8.12802 94.4872 10.144C93.3352 12.136 92.7592 14.476 92.7592 17.164C92.7592 19.948 93.3232 22.348 94.4512 24.364C95.6032 26.356 97.1632 27.868 99.1312 28.9C101.099 29.932 103.307 30.448 105.755 30.448C108.179 30.448 110.375 29.932 112.343 28.9C114.311 27.868 115.859 26.3561 116.987 24.3641C118.139 22.3481 118.715 19.948 118.715 17.164C118.715 14.476 118.139 12.136 116.987 10.144ZM108.987 7.90406C108.004 7.12624 106.937 6.75202 105.755 6.75202C104.573 6.75202 103.49 7.12678 102.48 7.91024L102.478 7.91203C101.505 8.66211 100.687 9.80229 100.063 11.4065C99.4464 12.9925 99.1232 14.9041 99.1232 17.164C99.1232 19.5499 99.4481 21.5188 100.062 23.0994C100.685 24.6763 101.499 25.7899 102.467 26.516C103.446 27.2502 104.532 27.612 105.755 27.612C106.951 27.612 108.025 27.2526 109.007 26.516C109.973 25.792 110.788 24.6689 111.411 23.0656C112.026 21.4836 112.351 19.5256 112.351 17.164C112.351 14.9041 112.028 12.9925 111.411 11.4065C110.787 9.80229 109.97 8.66211 108.997 7.91203L108.987 7.90406ZM99.1312 23.464C98.4592 21.736 98.1232 19.636 98.1232 17.164C98.1232 14.812 98.4592 12.772 99.1312 11.044C99.8032 9.31602 100.715 8.00802 101.867 7.12002C103.043 6.20802 104.339 5.75202 105.755 5.75202C107.171 5.75202 108.455 6.20802 109.607 7.12002C110.759 8.00802 111.671 9.31602 112.343 11.044C113.015 12.772 113.351 14.812 113.351 17.164C113.351 19.612 113.015 21.7 112.343 23.428C111.671 25.156 110.759 26.452 109.607 27.316C108.455 28.18 107.171 28.612 105.755 28.612C104.315 28.612 103.019 28.18 101.867 27.316C100.715 26.452 99.8032 25.168 99.1312 23.464Z" fill="#FCFCA8"/>
<path fill-rule="evenodd" clip-rule="evenodd" d="M53.5504 31.16L55.164 29.4696C55.5651 29.0493 55.9086 28.5049 56.181 27.8135C56.427 27.189 56.5794 26.2401 56.5794 24.904V9.46004C56.5794 8.12397 56.427 7.17506 56.181 6.55056C55.9086 5.8592 55.5651 5.31474 55.164 4.89452L53.5504 3.20404H59.0274V0.8927L71.5821 19.7834L82.5663 3.20404H89.5856L87.8785 4.91115C87.4885 5.30111 87.1358 5.83908 86.839 6.55753C86.5946 7.1821 86.4434 8.12893 86.4434 9.46004V24.904C86.4434 26.2351 86.5946 27.182 86.839 27.8065C87.1357 28.525 87.4885 29.063 87.8785 29.4529L89.5856 31.16H79.4034V14.9775L71.5851 26.7847L63.649 14.8486L63.6174 31.16H53.5504ZM62.6554 11.548L71.5834 24.976L80.4034 11.656V30.16H87.1714C86.8875 29.8762 86.6303 29.5429 86.3997 29.16C86.2209 28.8631 86.0581 28.5365 85.9114 28.18C85.5994 27.388 85.4434 26.296 85.4434 24.904V9.46004C85.4434 8.06804 85.5994 6.97604 85.9114 6.18404C86.0581 5.82761 86.2209 5.50094 86.3997 5.20404C86.6303 4.82122 86.8875 4.48789 87.1714 4.20404H83.1034L71.5834 21.592L60.0274 4.20404V4.31204L59.9554 4.20404H55.8874C56.1668 4.49679 56.4167 4.83012 56.6372 5.20404C56.8143 5.5045 56.9724 5.83117 57.1114 6.18404C57.4234 6.97604 57.5794 8.06804 57.5794 9.46004V24.904C57.5794 26.296 57.4234 27.388 57.1114 28.18C56.9724 28.5329 56.8143 28.8596 56.6372 29.16C56.4167 29.534 56.1668 29.8673 55.8874 30.16H62.6194L62.6554 11.548Z" fill="#FCFCA8"/>
<path fill-rule="evenodd" clip-rule="evenodd" d="M38.2349 31.16L39.8485 29.4696C40.2497 29.0493 40.5931 28.5049 40.8655 27.8135L40.8702 27.8014L40.8753 27.7895C41.1364 27.174 41.2999 26.2348 41.2999 24.904V9.46004C41.2999 8.1293 41.1364 7.19008 40.8753 6.57459L40.8702 6.56264L40.8655 6.55056C40.5931 5.8592 40.2497 5.31474 39.8485 4.89452L38.2349 3.20404H51.3689L49.7552 4.89452C49.3504 5.31867 48.9938 5.86769 48.6977 6.56221C48.4544 7.18683 48.3039 8.13225 48.3039 9.46004V24.904C48.3039 26.2318 48.4544 27.1772 48.6977 27.8019C48.9938 28.4964 49.3504 29.0454 49.7552 29.4696L51.3689 31.16H38.2349ZM47.7719 28.18C47.4599 27.388 47.3039 26.296 47.3039 24.904V9.46004C47.3039 8.06804 47.4599 6.97604 47.7719 6.18404C47.9216 5.83117 48.088 5.5045 48.271 5.20404C48.4988 4.83013 48.7524 4.49679 49.0319 4.20404H40.5719C40.8513 4.49679 41.1013 4.83013 41.3217 5.20404C41.4988 5.5045 41.6569 5.83117 41.7959 6.18404C42.1319 6.97604 42.2999 8.06804 42.2999 9.46004V24.904C42.2999 26.296 42.1319 27.388 41.7959 28.18C41.6569 28.5329 41.4988 28.8596 41.3217 29.16C41.1013 29.534 40.8513 29.8673 40.5719 30.16H49.0319C48.7524 29.8673 48.4988 29.534 48.271 29.16C48.088 28.8596 47.9216 28.5329 47.7719 28.18Z" fill="#FCFCA8"/>
<path fill-rule="evenodd" clip-rule="evenodd" d="M0.103031 31.16L1.71667 29.4696C2.11779 29.0493 2.46126 28.5049 2.73361 27.8135C2.97963 27.189 3.13202 26.2401 3.13202 24.904V9.46004C3.13202 8.12397 2.97963 7.17506 2.73361 6.55056C2.46126 5.8592 2.11779 5.31474 1.71667 4.89452L0.103027 3.20404H5.58002V0.8927L18.1347 19.7834L29.119 3.20404H36.1382L34.4311 4.91115C34.0412 5.30111 33.6884 5.83908 33.3917 6.55752C33.1473 7.1821 32.996 8.12892 32.996 9.46004V24.904C32.996 26.2351 33.1473 27.182 33.3917 27.8065C33.6884 28.525 34.0412 29.063 34.4311 29.4529L36.1382 31.16H25.956V14.9775L18.1377 26.7847L10.2016 14.8486L10.1701 31.16H0.103031ZM9.20802 11.548L18.136 24.976L26.956 11.656V30.16H33.724C33.4402 29.8762 33.183 29.5429 32.9524 29.16C32.7736 28.8631 32.6108 28.5365 32.464 28.18C32.152 27.388 31.996 26.296 31.996 24.904V9.46004C31.996 8.06804 32.152 6.97604 32.464 6.18404C32.6108 5.82761 32.7736 5.50094 32.9524 5.20404C33.183 4.82122 33.4402 4.48789 33.724 4.20404H29.656L18.136 21.592L6.58002 4.20404V4.31204L6.50802 4.20404H2.44002C2.71947 4.49679 2.9694 4.83012 3.18982 5.20404C3.36695 5.5045 3.52501 5.83117 3.66402 6.18404C3.97602 6.97604 4.13202 8.06804 4.13202 9.46004V24.904C4.13202 26.296 3.97602 27.388 3.66402 28.18C3.52501 28.5329 3.36695 28.8596 3.18982 29.16C2.9694 29.534 2.71947 29.8673 2.44002 30.16H9.17202L9.20802 11.548Z" fill="#FCFCA8"/>
</svg>
