<svg width="23" height="23" viewBox="0 0 23 23" fill="none" xmlns="http://www.w3.org/2000/svg">
<path d="M20.8438 3.61621H15.7047C14.6019 3.61621 13.5237 3.93291 12.5961 4.53037L11.5 5.2334L10.4039 4.53037C9.47719 3.93303 8.39786 3.61562 7.29531 3.61621H2.15625C1.75869 3.61621 1.4375 3.9374 1.4375 4.33496V17.0928C1.4375 17.4903 1.75869 17.8115 2.15625 17.8115H7.29531C8.39814 17.8115 9.47627 18.1282 10.4039 18.7257L11.4012 19.3681C11.4304 19.386 11.4641 19.3973 11.4978 19.3973C11.5314 19.3973 11.5651 19.3883 11.5943 19.3681L12.5916 18.7257C13.5215 18.1282 14.6019 17.8115 15.7047 17.8115H20.8438C21.2413 17.8115 21.5625 17.4903 21.5625 17.0928V4.33496C21.5625 3.9374 21.2413 3.61621 20.8438 3.61621ZM7.29531 16.1943H3.05469V5.2334H7.29531C8.09043 5.2334 8.86309 5.46025 9.53018 5.88926L10.6263 6.59229L10.7812 6.69336V17.0703C9.71211 16.4953 8.51719 16.1943 7.29531 16.1943ZM19.9453 16.1943H15.7047C14.4828 16.1943 13.2879 16.4953 12.2188 17.0703V6.69336L12.3737 6.59229L13.4698 5.88926C14.1369 5.46025 14.9096 5.2334 15.7047 5.2334H19.9453V16.1943ZM8.91475 8.1084H4.7415C4.65391 8.1084 4.58203 8.18477 4.58203 8.27686V9.2876C4.58203 9.37969 4.65391 9.45605 4.7415 9.45605H8.9125C9.0001 9.45605 9.07197 9.37969 9.07197 9.2876V8.27686C9.07422 8.18477 9.00234 8.1084 8.91475 8.1084ZM13.9258 8.27686V9.2876C13.9258 9.37969 13.9977 9.45605 14.0853 9.45605H18.2563C18.3438 9.45605 18.4157 9.37969 18.4157 9.2876V8.27686C18.4157 8.18477 18.3438 8.1084 18.2563 8.1084H14.0853C13.9977 8.1084 13.9258 8.18477 13.9258 8.27686ZM8.91475 11.2529H4.7415C4.65391 11.2529 4.58203 11.3293 4.58203 11.4214V12.4321C4.58203 12.5242 4.65391 12.6006 4.7415 12.6006H8.9125C9.0001 12.6006 9.07197 12.5242 9.07197 12.4321V11.4214C9.07422 11.3293 9.00234 11.2529 8.91475 11.2529ZM18.2585 11.2529H14.0853C13.9977 11.2529 13.9258 11.3293 13.9258 11.4214V12.4321C13.9258 12.5242 13.9977 12.6006 14.0853 12.6006H18.2563C18.3438 12.6006 18.4157 12.5242 18.4157 12.4321V11.4214C18.418 11.3293 18.3461 11.2529 18.2585 11.2529Z" fill="white"/>
</svg>
