<svg width="23" height="20" viewBox="0 0 23 20" fill="none" xmlns="http://www.w3.org/2000/svg">
<path d="M1 16.75C1 15.5565 1.55312 14.4119 2.53768 13.568C3.52225 12.7241 4.8576 12.25 6.24998 12.25H16.7499C18.1423 12.25 19.4777 12.7241 20.4622 13.568C21.4468 14.4119 21.9999 15.5565 21.9999 16.75C21.9999 17.3467 21.7234 17.919 21.2311 18.341C20.7388 18.7629 20.0711 19 19.3749 19H3.62499C2.9288 19 2.26112 18.7629 1.76884 18.341C1.27656 17.919 1 17.3467 1 16.75Z" stroke="white" stroke-width="1.5" stroke-linejoin="round"/>
<path d="M11.5 7.75004C13.6746 7.75004 15.4375 6.239 15.4375 4.37505C15.4375 2.51109 13.6746 1.00006 11.5 1.00006C9.32537 1.00006 7.5625 2.51109 7.5625 4.37505C7.5625 6.239 9.32537 7.75004 11.5 7.75004Z" stroke="white" stroke-width="1.5"/>
</svg>
