<svg width="24" height="24" viewBox="0 0 24 24" fill="none" xmlns="http://www.w3.org/2000/svg">
<path d="M5.25004 3C5.11087 3.00001 4.97445 3.03873 4.85603 3.11185C4.73762 3.18496 4.64188 3.28958 4.57954 3.414L1.57954 9.414C1.51466 9.54318 1.48849 9.68836 1.50419 9.83207C1.51989 9.97577 1.57679 10.1119 1.66804 10.224L11.418 22.224C11.4884 22.3105 11.5771 22.3803 11.6778 22.4282C11.7784 22.4761 11.8885 22.501 12 22.501C12.1115 22.501 12.2216 22.4761 12.3223 22.4282C12.423 22.3803 12.5117 22.3105 12.582 22.224L22.332 10.224C22.4235 10.112 22.4807 9.976 22.4967 9.83229C22.5126 9.68858 22.4867 9.54332 22.422 9.414L19.422 3.414C19.3596 3.28935 19.2636 3.18458 19.1449 3.11145C19.0262 3.03832 18.8895 2.99973 18.75 3H5.25004ZM3.46354 9L5.71354 4.5H8.78854L7.66354 9H3.46354ZM3.82504 10.5H7.69954L10.119 18.246L3.82504 10.5ZM9.27004 10.5H14.73L12 19.2345L9.27004 10.5ZM16.302 10.5H20.175L13.881 18.246L16.302 10.5ZM20.5365 9H16.3365L15.2115 4.5H18.2865L20.5365 9ZM14.79 9H9.21004L10.335 4.5H13.665L14.79 9Z" fill="white"/>
</svg>
