<svg width="21" height="20" viewBox="0 0 21 20" fill="none" xmlns="http://www.w3.org/2000/svg">
<path d="M10.5 20C10.8242 19.9996 11.1408 19.8994 11.4086 19.7123C15.3757 16.9568 17.0934 15.0675 18.0409 13.8863C20.06 11.3684 21.0267 8.78334 20.9994 5.98395C20.9676 2.77601 18.4523 0.166687 15.3923 0.166687C13.1673 0.166687 11.6262 1.44914 10.7287 2.51725C10.7002 2.55074 10.6651 2.5776 10.6257 2.59601C10.5862 2.61441 10.5434 2.62394 10.5 2.62394C10.4566 2.62394 10.4138 2.61441 10.3743 2.59601C10.3349 2.5776 10.2998 2.55074 10.2713 2.51725C9.37383 1.44811 7.83274 0.166687 5.60767 0.166687C2.54768 0.166687 0.032362 2.77601 0.00056076 5.98447C-0.0266972 8.78437 0.940968 11.3694 2.95908 13.8868C3.90656 15.068 5.62432 16.9574 9.59139 19.7129C9.85924 19.8997 10.1758 19.9998 10.5 20Z" fill="white"/>
</svg>
