<svg width="15" height="16" viewBox="0 0 15 16" fill="none" xmlns="http://www.w3.org/2000/svg">
<g clip-path="url(#clip0_67_68)">
<path d="M15 8C15 10.1217 14.2098 12.1566 12.8033 13.6569C11.3968 15.1571 9.48912 16 7.5 16C5.51088 16 3.60322 15.1571 2.1967 13.6569C0.790176 12.1566 0 10.1217 0 8C0 5.87827 0.790176 3.84344 2.1967 2.34315C3.60322 0.842855 5.51088 0 7.5 0C9.48912 0 11.3968 0.842855 12.8033 2.34315C14.2098 3.84344 15 5.87827 15 8ZM5.01937 4.646C4.93136 4.55211 4.81198 4.49937 4.6875 4.49937C4.56302 4.49937 4.44364 4.55211 4.35563 4.646C4.26761 4.73989 4.21816 4.86722 4.21816 5C4.21816 5.13278 4.26761 5.26011 4.35563 5.354L6.83719 8L4.35563 10.646C4.31204 10.6925 4.27747 10.7477 4.25388 10.8084C4.2303 10.8692 4.21816 10.9343 4.21816 11C4.21816 11.0657 4.2303 11.1308 4.25388 11.1916C4.27747 11.2523 4.31204 11.3075 4.35563 11.354C4.44364 11.4479 4.56302 11.5006 4.6875 11.5006C4.74914 11.5006 4.81017 11.4877 4.86711 11.4625C4.92405 11.4374 4.97579 11.4005 5.01937 11.354L7.5 8.707L9.98063 11.354C10.0242 11.4005 10.0759 11.4374 10.1329 11.4625C10.1898 11.4877 10.2509 11.5006 10.3125 11.5006C10.3741 11.5006 10.4352 11.4877 10.4921 11.4625C10.5491 11.4374 10.6008 11.4005 10.6444 11.354C10.688 11.3075 10.7225 11.2523 10.7461 11.1916C10.7697 11.1308 10.7818 11.0657 10.7818 11C10.7818 10.9343 10.7697 10.8692 10.7461 10.8084C10.7225 10.7477 10.688 10.6925 10.6444 10.646L8.16281 8L10.6444 5.354C10.688 5.30751 10.7225 5.25232 10.7461 5.19158C10.7697 5.13084 10.7818 5.06574 10.7818 5C10.7818 4.93426 10.7697 4.86916 10.7461 4.80842C10.7225 4.74768 10.688 4.69249 10.6444 4.646C10.6008 4.59951 10.5491 4.56264 10.4921 4.53748C10.4352 4.51232 10.3741 4.49937 10.3125 4.49937C10.2509 4.49937 10.1898 4.51232 10.1329 4.53748C10.0759 4.56264 10.0242 4.59951 9.98063 4.646L7.5 7.293L5.01937 4.646Z" fill="#999999"/>
</g>
<defs>
<clipPath id="clip0_67_68">
<rect width="15" height="16" fill="white"/>
</clipPath>
</defs>
</svg>
