<svg width="18" height="13" viewBox="0 0 18 13" fill="none" xmlns="http://www.w3.org/2000/svg">
<path d="M8.75 0C11.9691 0 15.8917 2.13173 17.2638 5.20453C17.3915 5.49382 17.5 5.83073 17.5 6.17382C17.5 6.51603 17.3924 6.85382 17.2638 7.14311C15.8909 10.2159 11.9683 12.3476 8.75 12.3476C5.53175 12.3476 1.60825 10.2159 0.23625 7.14311C0.1085 6.85294 0 6.51691 0 6.17382C0 5.83161 0.107625 5.49382 0.23625 5.20453C1.60913 2.13173 5.53175 0 8.75 0ZM8.75 2.64592C7.82174 2.64592 6.9315 3.01761 6.27513 3.67922C5.61875 4.34083 5.25 5.23816 5.25 6.17382C5.25 7.10948 5.61875 8.00681 6.27513 8.66842C6.9315 9.33003 7.82174 9.70172 8.75 9.70172C9.67826 9.70172 10.5685 9.33003 11.2249 8.66842C11.8813 8.00681 12.25 7.10948 12.25 6.17382C12.25 5.23816 11.8813 4.34083 11.2249 3.67922C10.5685 3.01761 9.67826 2.64592 8.75 2.64592ZM8.75 4.40987C9.21413 4.40987 9.65925 4.59572 9.98744 4.92652C10.3156 5.25732 10.5 5.70599 10.5 6.17382C10.5 6.64165 10.3156 7.09031 9.98744 7.42112C9.65925 7.75192 9.21413 7.93777 8.75 7.93777C8.28587 7.93777 7.84075 7.75192 7.51256 7.42112C7.18437 7.09031 7 6.64165 7 6.17382C7 5.70599 7.18437 5.25732 7.51256 4.92652C7.84075 4.59572 8.28587 4.40987 8.75 4.40987Z" fill="#111111"/>
</svg>
